<?xml version="1.0" encoding="iso-8859-1"?>
<!-- Generator: Adobe Illustrator 16.0.0, SVG Export Plug-In . SVG Version: 6.00 Build 0)  -->
<!DOCTYPE svg PUBLIC "-//W3C//DTD SVG 1.1//EN" "http://www.w3.org/Graphics/SVG/1.1/DTD/svg11.dtd">
<svg xmlns="http://www.w3.org/2000/svg" xmlns:xlink="http://www.w3.org/1999/xlink" version="1.1" id="Capa_1" x="0px" y="0px" width="512px" height="512px" viewBox="0 0 490.163 490.163" style="enable-background:new 0 0 490.163 490.163;" xml:space="preserve">
<g>
	<g>
		<path d="M418.381,71.783C372.091,25.494,310.546,0,245.082,0C179.617,0,118.073,25.494,71.783,71.783    C25.494,118.073,0,179.618,0,245.082S25.494,372.09,71.783,418.38c46.29,46.289,107.834,71.782,173.299,71.782    c65.464,0,127.009-25.493,173.299-71.782c46.289-46.29,71.782-107.835,71.782-173.299S464.67,118.073,418.381,71.783z     M245.082,430.163C143.028,430.163,60,347.135,60,245.082S143.028,60,245.082,60c102.054,0,185.081,83.027,185.081,185.081    C430.163,347.135,347.136,430.163,245.082,430.163z" fill="#d7191c"/>
		<polygon points="291.562,215.082 198.602,215.082 198.602,145.085 138.602,145.085 138.602,345.078 198.602,345.078     198.602,275.082 291.562,275.082 291.562,345.078 351.562,345.078 351.562,145.085 291.562,145.085   " fill="#d7191c"/>
	</g>
</g>
<g>
</g>
<g>
</g>
<g>
</g>
<g>
</g>
<g>
</g>
<g>
</g>
<g>
</g>
<g>
</g>
<g>
</g>
<g>
</g>
<g>
</g>
<g>
</g>
<g>
</g>
<g>
</g>
<g>
</g>
</svg>
